<svg width="24" height="25" viewBox="0 0 24 25" fill="none" xmlns="http://www.w3.org/2000/svg">
<path d="M14 12.5C14 13.6046 13.1046 14.5 12 14.5C10.8954 14.5 10 13.6046 10 12.5C10 11.3954 10.8954 10.5 12 10.5C13.1046 10.5 14 11.3954 14 12.5Z" fill="white"/>
<path d="M8 3.5H4C3.44772 3.5 3 3.94772 3 4.5V8.5H5V5.5H8V3.5Z" fill="white"/>
<path d="M10 5.5V3.5H14V5.5H10Z" fill="white"/>
<path d="M19 8.5V5.5H16V3.5H20C20.5523 3.5 21 3.94772 21 4.5V8.5H19Z" fill="white"/>
<path d="M19 14.5V10.5H21V14.5H19Z" fill="white"/>
<path d="M16 19.5H19V16.5H21V20.5C21 21.0523 20.5523 21.5 20 21.5H16V19.5Z" fill="white"/>
<path d="M10 19.5H14V21.5H10V19.5Z" fill="white"/>
<path d="M5 16.5V19.5H8V21.5H4C3.44772 21.5 3 21.0523 3 20.5V16.5H5Z" fill="white"/>
<path d="M5 10.5V14.5H3V10.5H5Z" fill="white"/>
</svg>
